<mxfile host="65bd71144e">
    <diagram id="UmgI23DoogtdbMWRoTQn" name="第 1 页">
        <mxGraphModel dx="529" dy="353" grid="1" gridSize="10" guides="1" tooltips="1" connect="1" arrows="1" fold="1" page="1" pageScale="1" pageWidth="827" pageHeight="1169" math="0" shadow="0">
            <root>
                <mxCell id="0"/>
                <mxCell id="1" parent="0"/>
                <mxCell id="3" value="8" style="ellipse;whiteSpace=wrap;html=1;fontFamily=Times New Roman;fontSize=19;fontStyle=0;strokeWidth=0.5;fillColor=#808080;fontColor=#FFFFFF;strokeColor=default;" parent="1" vertex="1">
                    <mxGeometry x="200" y="80" width="40" height="40" as="geometry"/>
                </mxCell>
                <mxCell id="4" value="4" style="ellipse;whiteSpace=wrap;html=1;fontFamily=Times New Roman;fontSize=19;strokeWidth=0.5;fontStyle=0;strokeColor=default;fillColor=#DDD;" parent="1" vertex="1">
                    <mxGeometry x="140" y="120" width="40" height="40" as="geometry"/>
                </mxCell>
                <mxCell id="5" style="edgeStyle=none;html=1;endArrow=none;endFill=0;strokeWidth=1;fontFamily=Times New Roman;fontStyle=0" parent="1" source="3" target="4" edge="1">
                    <mxGeometry relative="1" as="geometry"/>
                </mxCell>
                <mxCell id="6" value="2" style="ellipse;whiteSpace=wrap;html=1;fontFamily=Times New Roman;fontSize=19;strokeWidth=0.5;fontStyle=0;strokeColor=default;fillColor=#808080;fontColor=#FFFFFF;" parent="1" vertex="1">
                    <mxGeometry x="110" y="170" width="40" height="40" as="geometry"/>
                </mxCell>
                <mxCell id="7" style="edgeStyle=none;html=1;endArrow=none;endFill=0;strokeWidth=1;fontFamily=Times New Roman;fontStyle=0" parent="1" source="4" target="6" edge="1">
                    <mxGeometry relative="1" as="geometry"/>
                </mxCell>
                <mxCell id="32" style="edgeStyle=none;html=1;endArrow=none;endFill=0;strokeWidth=1;fontFamily=Times New Roman;fontStyle=0" parent="1" source="8" target="26" edge="1">
                    <mxGeometry relative="1" as="geometry"/>
                </mxCell>
                <mxCell id="8" value="6" style="ellipse;whiteSpace=wrap;html=1;fontFamily=Times New Roman;fontSize=19;strokeWidth=0.5;fontStyle=0;strokeColor=default;fillColor=#808080;fontColor=#FFFFFF;" parent="1" vertex="1">
                    <mxGeometry x="170" y="170" width="40" height="40" as="geometry"/>
                </mxCell>
                <mxCell id="9" style="edgeStyle=none;html=1;endArrow=none;endFill=0;strokeWidth=1;fontFamily=Times New Roman;fontStyle=0" parent="1" source="4" target="8" edge="1">
                    <mxGeometry relative="1" as="geometry"/>
                </mxCell>
                <mxCell id="10" value="12" style="ellipse;whiteSpace=wrap;html=1;fontFamily=Times New Roman;fontSize=19;strokeWidth=0.5;fontStyle=0;fillColor=#DDD;strokeColor=default;" parent="1" vertex="1">
                    <mxGeometry x="260" y="120" width="40" height="40" as="geometry"/>
                </mxCell>
                <mxCell id="11" style="edgeStyle=none;html=1;endArrow=none;endFill=0;strokeWidth=1;fontFamily=Times New Roman;fontStyle=0" parent="1" source="3" target="10" edge="1">
                    <mxGeometry relative="1" as="geometry"/>
                </mxCell>
                <mxCell id="12" value="9" style="ellipse;whiteSpace=wrap;html=1;fontFamily=Times New Roman;fontSize=19;strokeWidth=0.5;fontStyle=0;strokeColor=default;fillColor=#DDD;" parent="1" vertex="1">
                    <mxGeometry x="200" y="220" width="40" height="40" as="geometry"/>
                </mxCell>
                <mxCell id="14" value="13" style="ellipse;whiteSpace=wrap;html=1;fontFamily=Times New Roman;fontSize=19;strokeWidth=0.5;fontStyle=0;strokeColor=default;fillColor=#DDD;" parent="1" vertex="1">
                    <mxGeometry x="260" y="220" width="40" height="40" as="geometry"/>
                </mxCell>
                <mxCell id="15" value="15" style="ellipse;whiteSpace=wrap;html=1;fontFamily=Times New Roman;fontSize=19;strokeWidth=0.5;fontStyle=0;strokeColor=default;fillColor=#DDD;" parent="1" vertex="1">
                    <mxGeometry x="320" y="220" width="40" height="40" as="geometry"/>
                </mxCell>
                <mxCell id="16" style="edgeStyle=none;html=1;endArrow=none;endFill=0;strokeWidth=1;fontFamily=Times New Roman;fontStyle=0" parent="1" source="18" target="12" edge="1">
                    <mxGeometry relative="1" as="geometry"/>
                </mxCell>
                <mxCell id="18" value="10" style="ellipse;whiteSpace=wrap;html=1;fontFamily=Times New Roman;fontSize=19;strokeWidth=0.5;fillStyle=auto;fillColor=#808080;fontStyle=0;strokeColor=default;fontColor=#FFFFFF;" parent="1" vertex="1">
                    <mxGeometry x="230" y="170" width="40" height="40" as="geometry"/>
                </mxCell>
                <mxCell id="19" style="edgeStyle=none;html=1;endArrow=none;endFill=0;strokeWidth=1;fontFamily=Times New Roman;fontStyle=0" parent="1" source="10" target="18" edge="1">
                    <mxGeometry relative="1" as="geometry"/>
                </mxCell>
                <mxCell id="20" style="edgeStyle=none;html=1;endArrow=none;endFill=0;strokeWidth=1;fontFamily=Times New Roman;fontStyle=0" parent="1" source="22" target="14" edge="1">
                    <mxGeometry relative="1" as="geometry"/>
                </mxCell>
                <mxCell id="21" style="edgeStyle=none;html=1;endArrow=none;endFill=0;strokeWidth=1;fontFamily=Times New Roman;fontStyle=0" parent="1" source="22" target="15" edge="1">
                    <mxGeometry relative="1" as="geometry"/>
                </mxCell>
                <mxCell id="22" value="14" style="ellipse;whiteSpace=wrap;html=1;fontFamily=Times New Roman;fontSize=19;strokeWidth=0.5;fillStyle=auto;fillColor=#808080;fontStyle=0;strokeColor=default;fontColor=#FFFFFF;" parent="1" vertex="1">
                    <mxGeometry x="290" y="170" width="40" height="40" as="geometry"/>
                </mxCell>
                <mxCell id="23" style="edgeStyle=none;html=1;endArrow=none;endFill=0;strokeWidth=1;fontFamily=Times New Roman;fontStyle=0" parent="1" source="10" target="22" edge="1">
                    <mxGeometry relative="1" as="geometry"/>
                </mxCell>
                <mxCell id="24" value="1" style="ellipse;whiteSpace=wrap;html=1;fontFamily=Times New Roman;fontSize=19;strokeWidth=0.5;fillStyle=auto;fillColor=#DDD;fontStyle=0;strokeColor=default;" parent="1" vertex="1">
                    <mxGeometry x="80" y="220" width="40" height="40" as="geometry"/>
                </mxCell>
                <mxCell id="25" style="edgeStyle=none;html=1;endArrow=none;endFill=0;strokeWidth=1;fontFamily=Times New Roman;fontStyle=0" parent="1" source="6" target="24" edge="1">
                    <mxGeometry relative="1" as="geometry"/>
                </mxCell>
                <mxCell id="26" value="5" style="ellipse;whiteSpace=wrap;html=1;fontFamily=Times New Roman;fontSize=19;strokeWidth=0.5;fillStyle=auto;fillColor=#DDD;fontStyle=0;strokeColor=default;" parent="1" vertex="1">
                    <mxGeometry x="140" y="220" width="40" height="40" as="geometry"/>
                </mxCell>
            </root>
        </mxGraphModel>
    </diagram>
</mxfile>